<?xml version="1.0" encoding="UTF-8" standalone="no"?>
<!-- Created with Inkscape (http://www.inkscape.org/) -->

<svg
   version="1.1"
   id="svg1"
   width="2160"
   height="3840"
   viewBox="0 0 2160 3840"
   sodipodi:docname="GuilhermeGomesLogoMarcaV2.svg"
   inkscape:version="1.4 (86a8ad7, 2024-10-11)"
   xmlns:inkscape="http://www.inkscape.org/namespaces/inkscape"
   xmlns:sodipodi="http://sodipodi.sourceforge.net/DTD/sodipodi-0.dtd"
   xmlns="http://www.w3.org/2000/svg"
   xmlns:svg="http://www.w3.org/2000/svg">
  <defs
     id="defs1">
    <rect
       x="381.90736"
       y="1586.485"
       width="65.395095"
       height="112.47956"
       id="rect17" />
    <rect
       x="529.70027"
       y="1612.6431"
       width="732.42507"
       height="128.17439"
       id="rect14" />
    <inkscape:path-effect
       effect="mirror_symmetry"
       start_point="898.52861,1780.0545"
       end_point="898.52861,2321.5259"
       center_point="898.52861,2050.7902"
       id="path-effect11"
       is_visible="true"
       lpeversion="1.2"
       lpesatellites=""
       mode="free"
       discard_orig_path="false"
       fuse_paths="false"
       oposite_fuse="false"
       split_items="false"
       split_open="false"
       link_styles="false" />
    <inkscape:perspective
       sodipodi:type="inkscape:persp3d"
       inkscape:vp_x="0 : 1920 : 1"
       inkscape:vp_y="0 : 1000 : 0"
       inkscape:vp_z="2160 : 1920 : 1"
       inkscape:persp3d-origin="1080 : 1280 : 1"
       id="perspective7" />
  </defs>
  <sodipodi:namedview
     id="namedview1"
     pagecolor="#505050"
     bordercolor="#ffffff"
     borderopacity="1"
     inkscape:showpageshadow="0"
     inkscape:pageopacity="0"
     inkscape:pagecheckerboard="0"
     inkscape:deskcolor="#505050"
     showgrid="false"
     showguides="false"
     inkscape:zoom="0.76458333"
     inkscape:cx="892.64306"
     inkscape:cy="2080.218"
     inkscape:window-width="1920"
     inkscape:window-height="974"
     inkscape:window-x="-11"
     inkscape:window-y="-11"
     inkscape:window-maximized="1"
     inkscape:current-layer="g1" />
  <g
     inkscape:groupmode="layer"
     inkscape:label="Image"
     id="g1">
    <path
       style="fill:#d45500;stroke:#d45500"
       d="m 701.03542,2057.3297 14.38692,-56.2398 -58.85558,-213.188 122.94278,100.7084 m 316.51226,168.7194 -14.3869,-56.2398 58.8556,-213.188 -122.9428,100.7084"
       id="path10" />
    <path
       style="fill:#d45500"
       d="m 901.14441,1880.7629 -2.6158,448.6104 -291.66213,-194.8774 m 289.04633,-253.733 2.6158,448.6104 291.66209,-194.8774"
       id="path9"
       inkscape:transform-center-x="-353.13354"
       inkscape:transform-center-y="77.166213" />
    <path
       style="fill:#000000"
       d="m 898.52861,2320.218 c 2.61581,-439.4551 2.61581,-439.4551 2.61581,-439.4551 L 1090.7902,2036.4033 902.45232,1879.455"
       id="path12" />
    <path
       style="fill:#000000"
       d="m 898.52861,2318.9101 c 0,-436.8393 0,-436.8393 0,-436.8393 v 0 c -111.17166,81.09 -111.17166,81.09 -111.17166,81.09 v 0 0"
       id="path13" />
    <path
       style="fill:#d45500"
       d="m 891.9891,2314.9864 -176.56676,-121.6349 54.93188,-311.2807 266.81198,-2.6158 -6.5395,345.2861 z"
       id="path14" />
    <text
       xml:space="preserve"
       id="text14"
       style="text-align:start;writing-mode:lr-tb;direction:ltr;white-space:pre;shape-inside:url(#rect14);display:inline;fill:#000000" />
    <text
       xml:space="preserve"
       id="text17"
       style="text-align:start;writing-mode:lr-tb;direction:ltr;white-space:pre;shape-inside:url(#rect17);display:inline;fill:#000000" />
    <path
       style="fill:#000000;stroke-width:1.67857"
       d="m 836.59481,2080.938 112.32088,-1.5259 -51.05338,72.0865 z"
       id="path21"
       sodipodi:nodetypes="cccc" />
    <path
       style="fill:#000000;stroke-width:1.4179"
       d="m 657.87466,1793.1335 c 102.01635,159.0152 102.01635,159.0152 102.01635,159.0152 l -38.49674,41.0938 z"
       id="path22" />
    <path
       style="fill:#000000;stroke-width:1.4179"
       d="m 1137.9128,1793.9046 c -102.0164,159.0152 -102.0164,159.0152 -102.0164,159.0152 l 38.4968,41.0938 z"
       id="path22-7" />
    <path
       style="fill:#ffffff;stroke-width:0.999201"
       d="m 837.99979,2080.7926 -228.5175,52.316 289.23682,193.5696 287.93089,-192.9156 -237.656,-54.2779 -50.92676,70.6266 z"
       id="path24"
       sodipodi:nodetypes="ccccccc" />
  </g>
  <g
     inkscape:groupmode="layer"
     id="layer2"
     inkscape:label="RaposaFace"
     inkscape:path-effect="#path-effect11">
    <path
       style="fill:#d45500"
       d="m 772.97003,1883.3787 h 126.86648 v 0 0 l -201.41689,179.1826 c 0,0 -34.00545,109.8638 0,0 l 34.00545,-109.8638 c 0,0 -9.15531,14.387 0,0 9.15531,-14.3869 40.54496,-69.3188 40.54496,-69.3188 z m 251.11717,0 H 897.22071 v 0 0 l 201.41689,179.1826 c 0,0 34.0055,109.8638 0,0 l -34.0054,-109.8638 c 0,0 9.1553,14.387 0,0 -9.1554,-14.3869 -40.545,-69.3188 -40.545,-69.3188 z"
       id="path11"
       inkscape:original-d="m 772.97003,1883.3787 c 126.86648,0 126.86648,0 126.86648,0 v 0 0 c -201.41689,179.1826 -201.41689,179.1826 -201.41689,179.1826 0,0 -34.00545,109.8638 0,0 34.00545,-109.8638 34.00545,-109.8638 34.00545,-109.8638 0,0 -9.15531,14.387 0,0 9.15531,-14.3869 40.54496,-69.3188 40.54496,-69.3188 z" />
  </g>
</svg>
